<?xml version="1.0" encoding="utf-8"?>
<!-- Generator: Adobe Illustrator 19.1.1, SVG Export Plug-In . SVG Version: 6.00 Build 0)  -->
<svg version="1.1" id="_x31_0" xmlns="http://www.w3.org/2000/svg" xmlns:xlink="http://www.w3.org/1999/xlink" x="0px" y="0px"
	 viewBox="0 0 512 512" style="enable-background:new 0 0 512 512;" xml:space="preserve">
<style type="text/css">
	.st0{fill:#374149;}
</style>
<g>
	<path class="st0" d="M255.969,0.031C114.863,0.031,0,114.832,0,256s114.863,255.969,255.969,255.969
		C397.137,511.969,512,397.168,512,256S397.137,0.031,255.969,0.031z M255.969,474.836c-120.867,0-218.836-97.969-218.836-218.836
		S135.102,37.164,255.969,37.164S474.867,135.133,474.867,256S376.836,474.836,255.969,474.836z"/>
	<path class="st0" d="M158.309,271.473H83.707l-6.125-0.012l0.003,0.012h-0.164c2.012,23.637,8.766,45.89,19.086,66.023
		c17.55,34.492,45.832,62.41,80.672,79.386c19.418,9.539,40.754,15.742,63.316,17.665V353.66
		C198.414,346.977,164.996,313.617,158.309,271.473z"/>
	<path class="st0" d="M158.309,240.527c6.687-42.145,40.106-75.504,82.187-82.187V84.187l0.016-6.574c0,0-0.008,0-0.016,0v-0.161
		c-22.289,1.898-43.39,7.958-62.617,17.297c-50.902,24.512-88.184,72.234-98.356,129.742c-0.074,0.418-0.098,0.852-0.168,1.274
		c-0.816,4.809-1.5,9.664-1.93,14.602h0.02c-0.004,0.054-0.02,0.106-0.024,0.16H158.309z"/>
	<path class="st0" d="M345.645,149.614c4.457-2.906,9.656-4.454,14.98-4.454c8.29,0,16.027,3.711,21.226,10.211
		c8.848,11.078,7.614,26.98-2.414,36.574l-28.902,35.09c1.359,4.394,2.414,8.851,3.156,13.492h80.887
		c-1.934-22.73-8.219-44.199-17.871-63.722c-24.68-50.328-72.122-87.157-129.234-97.254c-0.234-0.042-0.477-0.054-0.707-0.094
		c-4.988-0.863-10.039-1.558-15.164-2.004v0.02c-0.054-0.004-0.106-0.016-0.16-0.02v80.887c12.008,1.918,23.27,6.004,33.422,11.82
		L345.645,149.614z"/>
	<path class="st0" d="M353.691,271.473c-6.683,42.144-40.102,75.504-82.25,82.187v80.887c22.606-1.922,43.976-8.141,63.422-17.696
		c50.52-24.625,87.496-72.137,97.618-129.347c0.054-0.301,0.07-0.614,0.121-0.91c0.848-4.926,1.535-9.906,1.977-14.961h-0.02
		c0.004-0.054,0.016-0.106,0.02-0.16H353.691z"/>
	<path class="st0" d="M286.418,275.742l3.528-4.27l25.438-30.946l26.922-32.676l23.703-28.777c3.714-2.973,4.332-8.418,1.359-12.129
		c-1.73-2.106-4.207-3.219-6.742-3.219c-1.922,0-3.777,0.618-5.386,1.855l-33.355,16.77l-50.442,25.438l-28.035,14.11
		c-0.989,0.496-1.981,1.054-2.91,1.672c-6.621,4.023-11.695,10.027-14.602,16.957c-2.355,5.57-3.281,11.821-2.355,18.074
		c0.621,4.453,2.106,8.847,4.519,12.871c0.867,1.546,1.856,2.969,2.969,4.394c2.726,3.402,5.942,6.187,9.469,8.293
		c1.859,1.176,3.715,2.102,5.695,2.848c3.961,1.546,8.047,2.226,12.07,2.226c4.516,0,8.973-0.867,13.18-2.66
		C277.137,284.406,282.332,280.695,286.418,275.742z"/>
</g>
</svg>
